<?xml version="1.0" standalone="no"?>
<!DOCTYPE svg PUBLIC "-//W3C//DTD SVG 20010904//EN"
 "http://www.w3.org/TR/2001/REC-SVG-20010904/DTD/svg10.dtd">
<svg version="1.0" xmlns="http://www.w3.org/2000/svg"
 width="256.000000pt" height="256.000000pt" viewBox="0 0 256.000000 256.000000"
 preserveAspectRatio="xMidYMid meet">
<metadata>
Created by potrace 1.10, written by Peter Selinger 2001-2011
</metadata>
<g transform="translate(0.000000,256.000000) scale(0.100000,-0.100000)"
fill="#b70909" stroke="none">
<path d="M0 1280 l0 -1280 1280 0 1280 0 0 1280 0 1280 -1280 0 -1280 0 0
-1280z m1490 1136 c403 -72 752 -371 879 -751 122 -366 62 -767 -160 -1066
-61 -83 -205 -222 -287 -278 -94 -64 -235 -128 -347 -158 -89 -24 -119 -26
-275 -27 -134 -1 -195 3 -260 17 -275 59 -548 239 -709 467 -227 322 -270 744
-114 1116 76 182 256 402 414 506 124 82 285 148 424 173 94 17 341 18 435 1z"/>
<path d="M1117 2336 c-214 -38 -423 -140 -575 -280 -132 -121 -260 -345 -308
-536 -28 -111 -26 -384 4 -492 49 -178 141 -343 268 -477 210 -224 531 -358
804 -336 176 14 314 51 462 125 219 110 388 293 493 537 65 148 78 219 78 398
0 141 -3 171 -26 259 -61 228 -186 431 -349 565 -132 109 -270 182 -423 223
-94 25 -321 32 -428 14z m251 -173 c42 -31 55 -83 49 -193 -4 -65 -3 -89 4
-77 15 26 65 22 94 -8 26 -25 31 -50 16 -74 -11 -16 -51 2 -51 24 0 18 -17 28
-52 30 -26 2 -28 -1 -28 -37 0 -34 5 -41 35 -59 38 -23 43 -34 19 -43 -33 -13
-81 -6 -99 14 -15 17 -17 32 -12 102 3 46 9 93 13 106 10 33 -6 28 -82 -29
-64 -47 -69 -49 -72 -29 -5 34 21 63 88 99 50 27 64 31 71 20 13 -21 12 21 -2
59 -12 35 -63 58 -101 47 -29 -9 -78 -54 -78 -72 0 -13 -51 -19 -63 -7 -9 9
20 75 46 103 12 13 36 30 52 37 40 19 119 12 153 -13z m224 -124 c152 -32 241
-129 261 -281 6 -47 6 -48 -21 -49 -15 -1 11 -9 58 -18 75 -14 85 -19 88 -39
4 -29 -12 -29 -164 2 -166 34 -194 47 -194 91 0 30 29 54 87 71 44 13 49 13
60 -3 19 -26 17 -29 -29 -39 -53 -11 -56 -33 -8 -50 65 -23 73 -20 65 29 -25
153 -115 227 -297 244 -69 6 -73 9 -62 37 7 19 77 21 156 5z m-385 -39 c46
-20 46 -21 25 -36 -13 -9 -32 -12 -49 -9 -23 5 -25 4 -10 -5 10 -6 17 -23 17
-40 0 -27 -1 -28 -30 -17 -23 9 -30 18 -30 38 0 15 6 29 13 32 24 9 -85 19
-135 13 -69 -9 -108 -27 -156 -70 -36 -33 -92 -50 -92 -28 0 18 66 84 103 104
100 52 251 59 344 18z m129 -86 c-3 -9 -6 -22 -6 -30 0 -11 -5 -11 -25 -2 -28
13 -30 19 -13 36 18 18 51 15 44 -4z m-170 -38 c59 -27 90 -62 72 -83 -16 -20
-34 -16 -72 18 -19 16 -48 34 -65 39 -26 7 -34 4 -63 -23 l-33 -32 -3 29 c-2
19 4 36 19 52 29 31 78 31 145 0z m-277 -34 c19 -9 39 -25 45 -35 22 -35 -35
-95 -106 -112 -24 -6 -28 -4 -28 14 0 14 11 28 30 39 36 20 38 37 8 46 -77 20
-165 -9 -221 -74 -28 -34 -87 -70 -87 -54 0 15 36 73 64 102 74 79 216 115
295 74z m235 -11 c3 -4 -24 -34 -59 -65 -61 -54 -83 -83 -104 -138 -8 -22 -7
-23 39 -20 89 7 189 -55 205 -127 17 -77 -63 -160 -143 -148 -43 8 -46 10 -38
41 5 22 12 25 54 28 l47 3 3 42 c3 36 -1 47 -24 68 -15 14 -32 25 -38 25 -6 0
-5 -4 3 -9 12 -7 -3 -43 -73 -185 -54 -108 -94 -176 -104 -178 -22 -5 95 -34
171 -43 55 -7 57 -8 57 -37 l0 -29 -57 7 c-32 4 -92 15 -133 25 -41 9 -77 16
-79 13 -2 -2 1 -4 7 -4 7 0 12 -12 12 -26 0 -15 4 -23 10 -19 20 12 78 -59 94
-116 17 -59 36 -238 26 -244 -4 -2 -16 -1 -28 2 -16 4 -22 13 -22 32 -1 60
-31 188 -54 234 -15 27 -27 56 -27 65 -3 35 -18 -76 -18 -135 l-1 -63 -30 0
-30 0 0 75 c0 83 26 205 44 205 6 0 -8 9 -31 20 -24 10 -64 33 -89 51 l-47 32
37 15 c32 13 39 13 54 -1 14 -12 95 -57 104 -57 2 0 4 10 4 23 4 51 119 286
166 337 16 17 16 18 -5 24 -12 3 -32 6 -44 6 -12 0 -24 8 -26 18 -3 9 -5 3 -6
-14 0 -17 4 -45 10 -62 8 -25 8 -36 -5 -53 l-15 -22 -20 34 c-15 25 -21 51
-21 97 0 97 43 180 128 246 43 34 85 46 96 27z m352 -19 c49 -36 112 -106 142
-160 l22 -40 -27 -7 c-17 -4 -29 -2 -31 4 -9 26 -96 133 -133 161 -38 31 -53
70 -26 70 8 0 32 -13 53 -28z m-156 -1 c0 -10 -6 -24 -14 -30 -11 -9 -1 -24
56 -79 74 -70 144 -161 174 -225 17 -36 17 -38 -1 -51 -18 -13 -23 -8 -67 59
-27 41 -82 110 -124 154 -64 68 -74 84 -64 96 7 8 8 15 3 15 -10 0 -99 -90
-129 -131 -18 -23 -23 -25 -42 -15 -21 11 -21 12 23 68 44 56 157 158 176 158
5 0 9 -8 9 -19z m617 8 c69 -26 112 -100 113 -192 0 -57 -21 -127 -38 -127 -4
0 -16 6 -26 13 -14 10 -15 17 -7 40 15 39 14 111 -3 150 -16 39 -70 87 -97 87
-12 0 -19 7 -19 20 0 23 31 27 77 9z m-759 -50 c6 -48 -73 -88 -118 -59 -22
14 0 44 34 48 15 2 32 12 39 23 16 26 41 20 45 -12z m-398 -31 c0 -29 3 -70 6
-90 6 -34 4 -38 -20 -44 -15 -3 -29 -4 -31 -2 -8 8 -18 156 -12 172 4 9 18 16
32 16 24 0 25 -3 25 -52z m-70 -62 c0 -21 -9 -27 -79 -51 -43 -14 -87 -33 -97
-41 -18 -14 -18 -15 2 -5 26 13 34 6 34 -29 0 -36 34 -133 65 -186 33 -56 32
-64 -9 -64 -27 0 -38 7 -59 38 -37 53 -57 116 -57 181 l-1 56 -29 -33 c-30
-33 -34 -48 -31 -112 1 -19 -4 -50 -12 -69 l-15 -34 -18 27 c-19 30 -30 119
-20 160 9 36 62 94 110 119 33 17 178 63 209 66 4 1 7 -10 7 -23z m1100 -30
c0 -3 -10 -21 -21 -41 -27 -45 -36 -147 -19 -201 7 -21 26 -53 42 -71 33 -34
30 -53 -7 -53 -27 0 -78 54 -100 107 -28 67 -19 135 31 221 19 31 31 42 49 42
14 0 25 -2 25 -4z m314 -41 c94 -94 56 -305 -66 -364 -43 -20 -109 -27 -142
-15 -14 5 -14 8 1 30 12 18 24 24 53 24 46 0 97 33 124 80 30 50 29 142 -2
193 -23 39 -30 87 -12 87 5 0 25 -16 44 -35z m-1238 -11 c-3 -9 -6 -19 -6 -23
0 -4 -24 -13 -52 -20 -29 -6 -91 -29 -138 -51 -73 -34 -86 -37 -93 -24 -16 28
48 82 123 104 84 24 98 27 139 29 26 1 32 -2 27 -15z m814 -21 c0 -34 -15 -40
-96 -45 -71 -4 -83 -2 -93 14 -24 38 -11 43 122 46 58 2 67 0 67 -15z m228
-43 c76 -35 148 -91 157 -121 7 -21 -11 -69 -25 -69 -4 0 -19 17 -33 38 -31
48 -102 93 -189 122 -38 12 -68 24 -68 26 0 3 5 15 11 26 14 27 57 20 147 -22z
m-1103 -31 c24 -139 -77 -271 -208 -272 -70 -1 -113 20 -109 53 5 33 6 34 32
20 12 -7 41 -12 64 -12 93 -2 158 69 160 173 1 52 4 63 21 70 32 12 33 11 40
-32z m610 -39 c-10 -19 -14 -42 -11 -56 5 -20 13 -24 45 -24 50 0 93 34 118
95 16 40 22 45 50 45 l32 0 -15 -44 c-18 -51 -82 -129 -125 -151 -15 -8 -51
-15 -79 -15 -41 0 -56 5 -75 25 -37 36 -34 98 6 154 32 42 32 42 51 23 19 -18
19 -21 3 -52z m540 -50 c10 -17 -45 -118 -95 -173 -26 -29 -71 -65 -99 -80
l-50 -28 -11 22 c-7 11 -10 22 -8 23 2 2 24 17 49 34 64 43 122 111 150 176
20 45 27 52 41 45 9 -5 20 -13 23 -19z m-1457 -7 c7 -21 4 -39 -10 -72 -51
-120 -46 -280 11 -351 26 -33 28 -39 16 -65 l-12 -30 -35 36 c-89 94 -99 346
-18 477 24 39 36 40 48 5z m1130 -134 c23 -41 50 -94 59 -118 16 -42 16 -44
-2 -57 -27 -20 -34 -15 -60 46 -12 30 -39 84 -59 120 -35 60 -36 65 -20 77 10
7 23 12 29 10 5 -2 29 -37 53 -78z m502 -39 c21 -111 -22 -239 -110 -327 -51
-52 -139 -101 -195 -110 -29 -5 -33 -2 -37 22 -4 19 -1 28 11 32 9 3 48 20 88
39 75 36 127 86 158 150 21 44 36 137 28 175 -4 22 0 35 18 53 13 14 25 23 26
22 2 -1 7 -26 13 -56z m-861 -20 c15 -8 51 -75 51 -95 0 -14 -49 -2 -65 15
-42 46 -87 5 -87 -79 1 -28 6 -60 12 -71 9 -18 8 -25 -6 -41 -24 -27 -30 -24
-48 21 -56 140 39 306 143 250z m349 -89 c3 -17 -5 -25 -43 -42 -36 -16 -83
-23 -212 -31 -168 -10 -192 -7 -180 25 4 11 31 17 99 21 136 10 229 23 274 39
49 18 58 16 62 -12z m-838 -45 c0 -36 -12 -46 -57 -46 -107 0 -163 -137 -105
-259 20 -43 66 -71 118 -71 36 0 43 -3 48 -25 9 -34 1 -45 -32 -45 -116 0
-208 93 -219 220 -9 100 41 199 117 229 40 16 130 14 130 -3z m1080 -8 c25
-13 60 -43 78 -67 l33 -44 -21 -21 c-21 -20 -22 -20 -33 -2 -42 67 -89 96
-154 96 -76 0 -129 -54 -160 -162 -15 -54 -18 -58 -46 -58 -29 0 -30 1 -24 42
3 23 21 72 39 108 45 88 105 130 187 130 39 0 71 -7 101 -22z m-566 -90 c-54
-106 -166 -190 -264 -200 -31 -3 -35 0 -38 23 -3 23 2 28 40 37 60 15 130 64
186 129 75 88 118 94 76 11z m451 10 c19 -83 25 -124 31 -196 l7 -81 -28 -11
c-15 -6 -30 -9 -32 -6 -3 2 -9 50 -13 105 -5 55 -14 120 -20 143 -10 37 -10
44 6 55 26 19 43 16 49 -9z m-355 -172 c71 -17 213 -21 273 -7 36 9 37 8 37
-19 0 -37 -14 -42 -149 -48 -129 -5 -201 7 -274 46 -65 35 -74 47 -52 72 17
19 18 19 59 -5 23 -13 70 -31 106 -39z m-703 28 c44 -15 107 -27 147 -29 67
-4 71 -5 74 -30 3 -23 0 -25 -35 -27 -104 -5 -229 17 -250 44 -12 15 -26 68
-18 68 2 0 39 -12 82 -26z m1273 -34 c0 -69 -68 -139 -163 -169 -60 -18 -215
-46 -222 -39 -2 2 -1 15 2 29 4 23 11 26 81 38 142 24 187 48 266 142 21 25
36 24 36 -1z m-1104 -97 c30 -140 64 -200 124 -218 13 -4 37 -21 51 -36 l27
-29 -44 0 c-96 0 -156 58 -193 185 -36 127 -36 125 -1 125 24 0 31 -5 36 -27z
m720 -20 c-3 -16 -10 -54 -16 -86 -14 -73 -58 -127 -101 -127 -16 0 -29 2 -29
4 0 3 14 25 31 50 17 26 38 77 47 116 15 67 18 70 45 70 26 0 28 -3 23 -27z
m-511 -33 c71 -23 135 -72 135 -104 0 -26 -27 -73 -46 -80 -10 -4 -25 1 -35
10 -15 13 -16 20 -6 36 10 17 8 23 -21 48 -36 29 -127 60 -180 60 -21 0 -32 5
-32 14 0 8 -3 22 -7 32 -6 16 0 17 58 11 35 -3 95 -16 134 -27z m421 -54 c-5
-19 -17 -28 -60 -40 -29 -9 -64 -25 -77 -36 -24 -20 -24 -20 -4 -35 22 -18 79
-35 116 -35 79 0 182 58 215 121 10 20 22 29 40 29 22 0 24 -3 18 -22 -21 -69
-73 -125 -149 -160 -69 -31 -192 -31 -250 -1 -96 50 -105 117 -22 159 30 16
170 54 176 48 2 -1 1 -14 -3 -28z m-470 -14 c6 -4 23 -26 37 -49 49 -77 118
-117 202 -115 33 1 66 -2 74 -7 24 -16 -29 -35 -94 -35 -105 1 -219 78 -260
177 -15 36 -15 37 7 37 13 0 28 -4 34 -8z"/>
</g>
</svg>
